<svg width="12" height="12" fill="none" xmlns="http://www.w3.org/2000/svg"><path d="M4.356 7.026a.5.5 0 1 0-.802.598l.802-.598Zm4.444.598A.5.5 0 0 0 8 7.026l.801.598ZM4.51 4.03a.5.5 0 0 0 0 1v-1Zm.006 1a.5.5 0 1 0 0-1v1Zm3.328-1a.5.5 0 0 0 0 1v-1Zm.005 1a.5.5 0 0 0 0-1v1Zm2.828 1.176c0 2.504-2.017 4.529-4.5 4.529v1c3.04 0 5.5-2.478 5.5-5.529h-1Zm-4.5 4.529c-2.482 0-4.5-2.025-4.5-4.529h-1c0 3.05 2.46 5.529 5.5 5.529v-1Zm-4.5-4.529c0-2.503 2.018-4.528 4.5-4.528v-1c-3.04 0-5.5 2.478-5.5 5.528h1Zm4.5-4.528c2.483 0 4.5 2.025 4.5 4.528h1c0-3.05-2.46-5.528-5.5-5.528v1ZM3.955 7.325l-.4.299v.001a.158.158 0 0 0 .005.007 1.364 1.364 0 0 0 .05.061 3.81 3.81 0 0 0 .64.594c.437.32 1.094.655 1.927.655v-1c-.556 0-1.01-.223-1.337-.462a2.81 2.81 0 0 1-.482-.452l-.004-.004h.001v.001l-.4.3Zm2.222 1.617c.833 0 1.49-.335 1.927-.655a3.81 3.81 0 0 0 .679-.64 1.364 1.364 0 0 0 .016-.022l.001-.001-.4-.3-.401-.298v-.001L8 7.023l-.003.004-.02.024a2.81 2.81 0 0 1-.463.428c-.327.239-.78.462-1.337.462v1Zm-1.666-3.91h.005v-1h-.005v1Zm3.333 0h.005v-1h-.005v1Z" fill="#101012"/></svg>