<svg width="34" height="34" fill="none" xmlns="http://www.w3.org/2000/svg"><circle cx="17" cy="17" r="17" fill="#FF3537"/><path d="m8.625 16.625-.286-.694a.75.75 0 0 0-.01 1.383l.296-.689ZM23.5 10.5l.694.286a.75.75 0 0 0-.98-.98l.286.694Zm-6.125 14.875-.69.295a.75.75 0 0 0 1.384-.01l-.694-.285ZM14.75 19.25l.69-.295a.75.75 0 0 0-.395-.394l-.295.689Zm-5.84-1.931 14.876-6.125-.572-1.388L8.34 15.932l.572 1.386Zm13.896-7.105L16.681 25.09l1.387.572 6.125-14.875-1.387-.572ZM18.064 25.08l-2.625-6.125-1.378.59 2.625 6.125 1.378-.59Zm-3.019-6.52L8.92 15.937l-.59 1.378 6.125 2.625.59-1.378Z" fill="#fff"/></svg>