<svg width="22" height="22" fill="none" xmlns="http://www.w3.org/2000/svg"><path d="M14.75.25a.75.75 0 0 0 0 1.5V.25ZM18.5 1v.75V1ZM21 3.5h.75H21Zm0 15h-.75.75ZM18.5 21v.75V21Zm-3.75-.75a.75.75 0 0 0 0 1.5v-1.5ZM6.53 6.53a.75.75 0 0 0-1.06-1.06l1.06 1.06ZM1 11l-.53-.53a.75.75 0 0 0 0 1.06L1 11Zm4.47 5.53a.75.75 0 0 0 1.06-1.06l-1.06 1.06ZM16 11.75a.75.75 0 0 0 0-1.5v1.5Zm-1.25-10h3.75V.25h-3.75v1.5Zm5.5 1.75v15h1.5v-15h-1.5ZM18.5 20.25h-3.75v1.5h3.75v-1.5Zm1.75-1.75a1.75 1.75 0 0 1-1.75 1.75v1.5a3.25 3.25 0 0 0 3.25-3.25h-1.5ZM18.5 1.75c.966 0 1.75.784 1.75 1.75h1.5A3.25 3.25 0 0 0 18.5.25v1.5ZM5.47 5.47l-5 5 1.06 1.06 5-5-1.06-1.06Zm-5 6.06 5 5 1.06-1.06-5-5-1.06 1.06Zm.53.22h15v-1.5H1v1.5Z" fill="#FF3537"/></svg>